<svg xmlns="http://www.w3.org/2000/svg" width="2464" height="146" viewBox="0 0 2464 146" font-family="sans-serif" font-size="11">
<rect x="0" y="0" width="2464" height="146" fill="#ffffff"/>
<text x="16" y="17" fill="#111" font-size="14" font-weight="bold">hungarian_history  |  13 trees, 15 ultra-edges</text>
<line x1="144" y1="94.0" x2="208" y2="94.0" stroke="#4a6fa5" stroke-width="2" opacity="0.85"/>
<line x1="144" y1="98.0" x2="208" y2="98.0" stroke="#4a6fa5" stroke-width="2" opacity="0.85"/>
<line x1="144" y1="102.0" x2="208" y2="102.0" stroke="#4a6fa5" stroke-width="2" opacity="0.85"/>
<line x1="336" y1="94.0" x2="400" y2="94.0" stroke="#4a6fa5" stroke-width="2" opacity="0.85"/>
<line x1="336" y1="98.0" x2="400" y2="98.0" stroke="#4a6fa5" stroke-width="2" opacity="0.85"/>
<line x1="336" y1="102.0" x2="400" y2="102.0" stroke="#4a6fa5" stroke-width="2" opacity="0.85"/>
<line x1="528" y1="94.0" x2="592" y2="94.0" stroke="#4a6fa5" stroke-width="2" opacity="0.85"/>
<line x1="528" y1="98.0" x2="592" y2="98.0" stroke="#4a6fa5" stroke-width="2" opacity="0.85"/>
<line x1="528" y1="102.0" x2="592" y2="102.0" stroke="#4a6fa5" stroke-width="2" opacity="0.85"/>
<line x1="720" y1="94.0" x2="784" y2="94.0" stroke="#4a6fa5" stroke-width="2" opacity="0.85"/>
<line x1="720" y1="98.0" x2="784" y2="98.0" stroke="#4a6fa5" stroke-width="2" opacity="0.85"/>
<line x1="720" y1="102.0" x2="784" y2="102.0" stroke="#4a6fa5" stroke-width="2" opacity="0.85"/>
<line x1="912" y1="94.0" x2="976" y2="94.0" stroke="#4a6fa5" stroke-width="2" opacity="0.85"/>
<line x1="912" y1="98.0" x2="976" y2="98.0" stroke="#4a6fa5" stroke-width="2" opacity="0.85"/>
<line x1="912" y1="102.0" x2="976" y2="102.0" stroke="#4a6fa5" stroke-width="2" opacity="0.85"/>
<line x1="1104" y1="94.0" x2="1168" y2="94.0" stroke="#4a6fa5" stroke-width="2" opacity="0.85"/>
<line x1="1104" y1="98.0" x2="1168" y2="98.0" stroke="#4a6fa5" stroke-width="2" opacity="0.85"/>
<line x1="1104" y1="102.0" x2="1168" y2="102.0" stroke="#4a6fa5" stroke-width="2" opacity="0.85"/>
<line x1="1296" y1="94.0" x2="1360" y2="94.0" stroke="#4a6fa5" stroke-width="2" opacity="0.85"/>
<line x1="1296" y1="98.0" x2="1360" y2="98.0" stroke="#4a6fa5" stroke-width="2" opacity="0.85"/>
<line x1="1296" y1="102.0" x2="1360" y2="102.0" stroke="#4a6fa5" stroke-width="2" opacity="0.85"/>
<line x1="1488" y1="94.0" x2="1552" y2="94.0" stroke="#4a6fa5" stroke-width="2" opacity="0.85"/>
<line x1="1488" y1="98.0" x2="1552" y2="98.0" stroke="#4a6fa5" stroke-width="2" opacity="0.85"/>
<line x1="1488" y1="102.0" x2="1552" y2="102.0" stroke="#4a6fa5" stroke-width="2" opacity="0.85"/>
<line x1="1680" y1="94.0" x2="1744" y2="94.0" stroke="#4a6fa5" stroke-width="2" opacity="0.85"/>
<line x1="1680" y1="98.0" x2="1744" y2="98.0" stroke="#4a6fa5" stroke-width="2" opacity="0.85"/>
<line x1="1680" y1="102.0" x2="1744" y2="102.0" stroke="#4a6fa5" stroke-width="2" opacity="0.85"/>
<line x1="1872" y1="94.0" x2="1936" y2="94.0" stroke="#4a6fa5" stroke-width="2" opacity="0.85"/>
<line x1="1872" y1="98.0" x2="1936" y2="98.0" stroke="#4a6fa5" stroke-width="2" opacity="0.85"/>
<line x1="1872" y1="102.0" x2="1936" y2="102.0" stroke="#4a6fa5" stroke-width="2" opacity="0.85"/>
<line x1="2064" y1="94.0" x2="2128" y2="94.0" stroke="#4a6fa5" stroke-width="2" opacity="0.85"/>
<line x1="2064" y1="98.0" x2="2128" y2="98.0" stroke="#4a6fa5" stroke-width="2" opacity="0.85"/>
<line x1="2064" y1="102.0" x2="2128" y2="102.0" stroke="#4a6fa5" stroke-width="2" opacity="0.85"/>
<line x1="2256" y1="94.0" x2="2320" y2="94.0" stroke="#4a6fa5" stroke-width="2" opacity="0.85"/>
<line x1="2256" y1="98.0" x2="2320" y2="98.0" stroke="#4a6fa5" stroke-width="2" opacity="0.85"/>
<line x1="2256" y1="102.0" x2="2320" y2="102.0" stroke="#4a6fa5" stroke-width="2" opacity="0.85"/>
<line x1="144" y1="94.0" x2="592" y2="94.0" stroke="#d08a2e" stroke-width="2" opacity="0.85"/>
<line x1="144" y1="98.0" x2="592" y2="98.0" stroke="#d08a2e" stroke-width="2" opacity="0.85"/>
<line x1="144" y1="102.0" x2="592" y2="102.0" stroke="#d08a2e" stroke-width="2" opacity="0.85"/>
<line x1="336" y1="94.0" x2="784" y2="94.0" stroke="#d08a2e" stroke-width="2" opacity="0.85"/>
<line x1="336" y1="98.0" x2="784" y2="98.0" stroke="#d08a2e" stroke-width="2" opacity="0.85"/>
<line x1="336" y1="102.0" x2="784" y2="102.0" stroke="#d08a2e" stroke-width="2" opacity="0.85"/>
<line x1="1296" y1="94.0" x2="1360" y2="94.0" stroke="#d08a2e" stroke-width="2" opacity="0.85"/>
<line x1="1296" y1="98.0" x2="1360" y2="98.0" stroke="#d08a2e" stroke-width="2" opacity="0.85"/>
<line x1="1296" y1="102.0" x2="1360" y2="102.0" stroke="#d08a2e" stroke-width="2" opacity="0.85"/>
<rect x="16" y="66" width="128" height="64" rx="8" fill="#eef2f7" stroke="#334" stroke-width="1.5"/>
<text x="80.0" y="96.0" text-anchor="middle" fill="#111" font-size="12" font-weight="bold">Eredet — Origins</text>
<text x="80.0" y="112.0" text-anchor="middle" fill="#555" font-size="10">sparse | 6</text>
<rect x="208" y="66" width="128" height="64" rx="8" fill="#eef2f7" stroke="#334" stroke-width="1.5"/>
<text x="272.0" y="96.0" text-anchor="middle" fill="#111" font-size="12" font-weight="bold">Honfoglalás — Conquest</text>
<text x="272.0" y="112.0" text-anchor="middle" fill="#555" font-size="10">sparse | 5</text>
<rect x="400" y="66" width="128" height="64" rx="8" fill="#eef2f7" stroke="#334" stroke-width="1.5"/>
<text x="464.0" y="96.0" text-anchor="middle" fill="#111" font-size="12" font-weight="bold">Kalandozások — Raids</text>
<text x="464.0" y="112.0" text-anchor="middle" fill="#555" font-size="10">sparse | 4</text>
<rect x="592" y="66" width="128" height="64" rx="8" fill="#eef2f7" stroke="#334" stroke-width="1.5"/>
<text x="656.0" y="96.0" text-anchor="middle" fill="#111" font-size="12" font-weight="bold">Államalapítás — Founding</text>
<text x="656.0" y="112.0" text-anchor="middle" fill="#555" font-size="10">sparse | 5</text>
<rect x="784" y="66" width="128" height="64" rx="8" fill="#eef2f7" stroke="#334" stroke-width="1.5"/>
<text x="848.0" y="96.0" text-anchor="middle" fill="#111" font-size="12" font-weight="bold">Árpád-ház — Árpád dynasty</text>
<text x="848.0" y="112.0" text-anchor="middle" fill="#555" font-size="10">sparse | 6</text>
<rect x="976" y="66" width="128" height="64" rx="8" fill="#eef2f7" stroke="#334" stroke-width="1.5"/>
<text x="1040.0" y="96.0" text-anchor="middle" fill="#111" font-size="12" font-weight="bold">Anjou &amp; Luxemburg</text>
<text x="1040.0" y="112.0" text-anchor="middle" fill="#555" font-size="10">sparse | 3</text>
<rect x="1168" y="66" width="128" height="64" rx="8" fill="#eef2f7" stroke="#334" stroke-width="1.5"/>
<text x="1232.0" y="96.0" text-anchor="middle" fill="#111" font-size="12" font-weight="bold">Hunyadiak — Hunyadis</text>
<text x="1232.0" y="112.0" text-anchor="middle" fill="#555" font-size="10">sparse | 5</text>
<rect x="1360" y="66" width="128" height="64" rx="8" fill="#eef2f7" stroke="#334" stroke-width="1.5"/>
<text x="1424.0" y="96.0" text-anchor="middle" fill="#111" font-size="12" font-weight="bold">Török kor — Ottoman</text>
<text x="1424.0" y="112.0" text-anchor="middle" fill="#555" font-size="10">sparse | 5</text>
<rect x="1552" y="66" width="128" height="64" rx="8" fill="#eef2f7" stroke="#334" stroke-width="1.5"/>
<text x="1616.0" y="96.0" text-anchor="middle" fill="#111" font-size="12" font-weight="bold">Habsburg &amp; szabadságharc</text>
<text x="1616.0" y="112.0" text-anchor="middle" fill="#555" font-size="10">sparse | 6</text>
<rect x="1744" y="66" width="128" height="64" rx="8" fill="#eef2f7" stroke="#334" stroke-width="1.5"/>
<text x="1808.0" y="96.0" text-anchor="middle" fill="#111" font-size="12" font-weight="bold">Kiegyezés — Dual Monarchy</text>
<text x="1808.0" y="112.0" text-anchor="middle" fill="#555" font-size="10">sparse | 3</text>
<rect x="1936" y="66" width="128" height="64" rx="8" fill="#eef2f7" stroke="#334" stroke-width="1.5"/>
<text x="2000.0" y="96.0" text-anchor="middle" fill="#111" font-size="12" font-weight="bold">Trianon &amp; világháborúk</text>
<text x="2000.0" y="112.0" text-anchor="middle" fill="#555" font-size="10">sparse | 4</text>
<rect x="2128" y="66" width="128" height="64" rx="8" fill="#eef2f7" stroke="#334" stroke-width="1.5"/>
<text x="2192.0" y="96.0" text-anchor="middle" fill="#111" font-size="12" font-weight="bold">Népköztársaság → 1989</text>
<text x="2192.0" y="112.0" text-anchor="middle" fill="#555" font-size="10">sparse | 4</text>
<rect x="2320" y="66" width="128" height="64" rx="8" fill="#eef2f7" stroke="#334" stroke-width="1.5"/>
<text x="2384.0" y="96.0" text-anchor="middle" fill="#111" font-size="12" font-weight="bold">Modern — Republic</text>
<text x="2384.0" y="112.0" text-anchor="middle" fill="#555" font-size="10">sparse | 3</text>
<rect x="16" y="30" width="16" height="10" fill="#4a6fa5"/>
<text x="38" y="39" fill="#333" font-size="10">plain</text>
<rect x="106" y="30" width="16" height="10" fill="#d08a2e"/>
<text x="128" y="39" fill="#333" font-size="10">residual</text>
</svg>