<svg xmlns="http://www.w3.org/2000/svg" viewBox="0 0 1180 1994" width="1180" height="1994" font-family="ui-monospace,Menlo,monospace"><rect width="1180" height="1994" fill="#070b16"/><text x="40" y="44" fill="#c8d4e8" font-size="26" font-weight="700">Magyar történelem — the whole arc as one ultra-graph</text><line x1="210" y1="70" x2="210" y2="1954" stroke="#1b2740" stroke-width="2"/><circle cx="210" cy="144" r="14" fill="#b48bff" opacity="0.18"/><circle cx="210" cy="144" r="7" fill="#b48bff"/><text x="40" y="138" fill="#c8d4e8" font-size="16" font-weight="700">Eredet — Origins</text><text x="40" y="160" fill="#5a6b8c" font-size="13">before 895</text><line x1="262" y1="116" x2="410" y2="152" stroke="#1b2740" stroke-width="1.4" opacity="0.9"/><line x1="410" y1="152" x2="558" y2="116" stroke="#1b2740" stroke-width="1.4" opacity="0.9"/><line x1="706" y1="152" x2="854" y2="116" stroke="#1b2740" stroke-width="1.4" opacity="0.9"/><line x1="854" y1="116" x2="1002" y2="152" stroke="#1b2740" stroke-width="1.4" opacity="0.9"/><circle cx="262" cy="116" r="10" fill="#00e660" opacity="0.18"/><circle cx="262" cy="116" r="5" fill="#00e660"/><text x="276" y="120" fill="#c8d4e8" font-size="12.5">Szkítia (Scythia)</text><circle cx="410" cy="152" r="10" fill="#00e660" opacity="0.18"/><circle cx="410" cy="152" r="5" fill="#00e660"/><text x="424" y="156" fill="#c8d4e8" font-size="12.5">Levédia</text><circle cx="558" cy="116" r="10" fill="#00e660" opacity="0.18"/><circle cx="558" cy="116" r="5" fill="#00e660"/><text x="572" y="120" fill="#c8d4e8" font-size="12.5">Etelköz</text><circle cx="706" cy="152" r="10" fill="#e6c34d" opacity="0.18"/><circle cx="706" cy="152" r="5" fill="#e6c34d"/><text x="720" y="156" fill="#c8d4e8" font-size="12.5">Ügek</text><circle cx="854" cy="116" r="10" fill="#e6c34d" opacity="0.18"/><circle cx="854" cy="116" r="5" fill="#e6c34d"/><text x="868" y="120" fill="#c8d4e8" font-size="12.5">Álmos</text><text x="910" y="120" fill="#5a6b8c" font-size="12.5">819</text><circle cx="1002" cy="152" r="10" fill="#b48bff" opacity="0.18"/><circle cx="1002" cy="152" r="5" fill="#b48bff"/><text x="1016" y="156" fill="#c8d4e8" font-size="12.5">hét vezér (hetumoger)</text><circle cx="210" cy="292" r="14" fill="#b48bff" opacity="0.18"/><circle cx="210" cy="292" r="7" fill="#b48bff"/><text x="40" y="286" fill="#c8d4e8" font-size="16" font-weight="700">Honfoglalás — Conquest</text><text x="40" y="308" fill="#5a6b8c" font-size="13">895–900</text><line x1="262" y1="264" x2="618" y2="264" stroke="#1b2740" stroke-width="1.4" opacity="0.9"/><line x1="262" y1="264" x2="440" y2="300" stroke="#1b2740" stroke-width="1.4" opacity="0.9"/><line x1="440" y1="300" x2="974" y2="264" stroke="#1b2740" stroke-width="1.4" opacity="0.9"/><line x1="974" y1="264" x2="796" y2="300" stroke="#1b2740" stroke-width="1.4" opacity="0.9"/><circle cx="262" cy="264" r="10" fill="#e6c34d" opacity="0.18"/><circle cx="262" cy="264" r="5" fill="#e6c34d"/><text x="276" y="268" fill="#c8d4e8" font-size="12.5">Árpád</text><text x="318" y="268" fill="#5a6b8c" font-size="12.5">895</text><circle cx="440" cy="300" r="10" fill="#00e660" opacity="0.18"/><circle cx="440" cy="300" r="5" fill="#00e660"/><text x="454" y="304" fill="#c8d4e8" font-size="12.5">Vereckei-hágó</text><text x="555" y="304" fill="#5a6b8c" font-size="12.5">895</text><circle cx="618" cy="264" r="10" fill="#b48bff" opacity="0.18"/><circle cx="618" cy="264" r="5" fill="#b48bff"/><text x="632" y="268" fill="#c8d4e8" font-size="12.5">vérszerződés (blood oath)</text><circle cx="796" cy="300" r="10" fill="#00e660" opacity="0.18"/><circle cx="796" cy="300" r="5" fill="#00e660"/><text x="810" y="304" fill="#c8d4e8" font-size="12.5">Pannónia</text><text x="874" y="304" fill="#5a6b8c" font-size="12.5">900</text><circle cx="974" cy="264" r="10" fill="#00e660" opacity="0.18"/><circle cx="974" cy="264" r="5" fill="#00e660"/><text x="988" y="268" fill="#c8d4e8" font-size="12.5">Kárpát-medence</text><text x="1096" y="268" fill="#5a6b8c" font-size="12.5">895</text><circle cx="210" cy="440" r="14" fill="#b48bff" opacity="0.18"/><circle cx="210" cy="440" r="7" fill="#b48bff"/><text x="40" y="434" fill="#c8d4e8" font-size="16" font-weight="700">Kalandozások — Raids</text><text x="40" y="456" fill="#5a6b8c" font-size="13">900–955</text><line x1="262" y1="412" x2="484" y2="448" stroke="#1b2740" stroke-width="1.4" opacity="0.9"/><line x1="706" y1="412" x2="484" y2="448" stroke="#1b2740" stroke-width="1.4" opacity="0.9"/><line x1="484" y1="448" x2="928" y2="448" stroke="#1b2740" stroke-width="1.4" opacity="0.9"/><circle cx="262" cy="412" r="10" fill="#00d4ff" opacity="0.18"/><circle cx="262" cy="412" r="5" fill="#00d4ff"/><text x="276" y="416" fill="#c8d4e8" font-size="12.5">nyugati kalandozások</text><text x="429" y="416" fill="#5a6b8c" font-size="12.5">910</text><circle cx="484" cy="448" r="10" fill="#00d4ff" opacity="0.18"/><circle cx="484" cy="448" r="5" fill="#00d4ff"/><text x="498" y="452" fill="#c8d4e8" font-size="12.5">Augsburg / Lechfeld</text><text x="643" y="452" fill="#5a6b8c" font-size="12.5">955</text><circle cx="706" cy="412" r="10" fill="#e6c34d" opacity="0.18"/><circle cx="706" cy="412" r="5" fill="#e6c34d"/><text x="720" y="416" fill="#c8d4e8" font-size="12.5">Bulcsú</text><text x="770" y="416" fill="#5a6b8c" font-size="12.5">955</text><circle cx="928" cy="448" r="10" fill="#b48bff" opacity="0.18"/><circle cx="928" cy="448" r="5" fill="#b48bff"/><text x="942" y="452" fill="#c8d4e8" font-size="12.5">vereség (defeat)</text><text x="1065" y="452" fill="#5a6b8c" font-size="12.5">955</text><circle cx="210" cy="588" r="14" fill="#b48bff" opacity="0.18"/><circle cx="210" cy="588" r="7" fill="#b48bff"/><text x="40" y="582" fill="#c8d4e8" font-size="16" font-weight="700">Államalapítás — Founding</text><text x="40" y="604" fill="#5a6b8c" font-size="13">972–1038</text><line x1="262" y1="560" x2="618" y2="560" stroke="#1b2740" stroke-width="1.4" opacity="0.9"/><line x1="618" y1="560" x2="440" y2="596" stroke="#1b2740" stroke-width="1.4" opacity="0.9"/><line x1="618" y1="560" x2="796" y2="596" stroke="#1b2740" stroke-width="1.4" opacity="0.9"/><line x1="796" y1="596" x2="974" y2="560" stroke="#1b2740" stroke-width="1.4" opacity="0.9"/><circle cx="262" cy="560" r="10" fill="#e6c34d" opacity="0.18"/><circle cx="262" cy="560" r="5" fill="#e6c34d"/><text x="276" y="564" fill="#c8d4e8" font-size="12.5">Géza</text><text x="311" y="564" fill="#5a6b8c" font-size="12.5">972</text><circle cx="440" cy="596" r="10" fill="#e6c34d" opacity="0.18"/><circle cx="440" cy="596" r="5" fill="#e6c34d"/><text x="454" y="600" fill="#c8d4e8" font-size="12.5">Koppány</text><text x="511" y="600" fill="#5a6b8c" font-size="12.5">997</text><circle cx="618" cy="560" r="10" fill="#e6c34d" opacity="0.18"/><circle cx="618" cy="560" r="5" fill="#e6c34d"/><text x="632" y="564" fill="#c8d4e8" font-size="12.5">István I (Szent István)</text><text x="807" y="564" fill="#5a6b8c" font-size="12.5">1000</text><circle cx="796" cy="596" r="10" fill="#00d4ff" opacity="0.18"/><circle cx="796" cy="596" r="5" fill="#00d4ff"/><text x="810" y="600" fill="#c8d4e8" font-size="12.5">koronázás 1000</text><text x="918" y="600" fill="#5a6b8c" font-size="12.5">1000</text><circle cx="974" cy="560" r="10" fill="#b48bff" opacity="0.18"/><circle cx="974" cy="560" r="5" fill="#b48bff"/><text x="988" y="564" fill="#c8d4e8" font-size="12.5">kereszténység</text><text x="1089" y="564" fill="#5a6b8c" font-size="12.5">1000</text><circle cx="210" cy="736" r="14" fill="#b48bff" opacity="0.18"/><circle cx="210" cy="736" r="7" fill="#b48bff"/><text x="40" y="730" fill="#c8d4e8" font-size="16" font-weight="700">Árpád-ház — Árpád dynasty</text><text x="40" y="752" fill="#5a6b8c" font-size="13">1038–1301</text><line x1="262" y1="708" x2="410" y2="744" stroke="#1b2740" stroke-width="1.4" opacity="0.9"/><line x1="410" y1="744" x2="558" y2="708" stroke="#1b2740" stroke-width="1.4" opacity="0.9"/><line x1="558" y1="708" x2="706" y2="744" stroke="#1b2740" stroke-width="1.4" opacity="0.9"/><line x1="854" y1="708" x2="706" y2="744" stroke="#1b2740" stroke-width="1.4" opacity="0.9"/><line x1="854" y1="708" x2="1002" y2="744" stroke="#1b2740" stroke-width="1.4" opacity="0.9"/><circle cx="262" cy="708" r="10" fill="#e6c34d" opacity="0.18"/><circle cx="262" cy="708" r="5" fill="#e6c34d"/><text x="276" y="712" fill="#c8d4e8" font-size="12.5">László I (Szent)</text><text x="399" y="712" fill="#5a6b8c" font-size="12.5">1077</text><circle cx="410" cy="744" r="10" fill="#e6c34d" opacity="0.18"/><circle cx="410" cy="744" r="5" fill="#e6c34d"/><text x="424" y="748" fill="#c8d4e8" font-size="12.5">Könyves Kálmán</text><text x="532" y="748" fill="#5a6b8c" font-size="12.5">1095</text><circle cx="558" cy="708" r="10" fill="#b48bff" opacity="0.18"/><circle cx="558" cy="708" r="5" fill="#b48bff"/><text x="572" y="712" fill="#c8d4e8" font-size="12.5">Aranybulla (Golden Bull)</text><text x="754" y="712" fill="#5a6b8c" font-size="12.5">1222</text><circle cx="706" cy="744" r="10" fill="#00d4ff" opacity="0.18"/><circle cx="706" cy="744" r="5" fill="#00d4ff"/><text x="720" y="748" fill="#c8d4e8" font-size="12.5">tatárjárás (Mongols)</text><text x="873" y="748" fill="#5a6b8c" font-size="12.5">1241</text><circle cx="854" cy="708" r="10" fill="#e6c34d" opacity="0.18"/><circle cx="854" cy="708" r="5" fill="#e6c34d"/><text x="868" y="712" fill="#c8d4e8" font-size="12.5">IV. Béla</text><text x="932" y="712" fill="#5a6b8c" font-size="12.5">1241</text><circle cx="1002" cy="744" r="10" fill="#e6c34d" opacity="0.18"/><circle cx="1002" cy="744" r="5" fill="#e6c34d"/><text x="1016" y="748" fill="#c8d4e8" font-size="12.5">III. András</text><text x="1102" y="748" fill="#5a6b8c" font-size="12.5">1301</text><circle cx="210" cy="884" r="14" fill="#b48bff" opacity="0.18"/><circle cx="210" cy="884" r="7" fill="#b48bff"/><text x="40" y="878" fill="#c8d4e8" font-size="16" font-weight="700">Anjou &amp; Luxemburg</text><text x="40" y="900" fill="#5a6b8c" font-size="13">1301–1437</text><line x1="262" y1="856" x2="492" y2="892" stroke="#1b2740" stroke-width="1.4" opacity="0.9"/><line x1="492" y1="892" x2="722" y2="856" stroke="#1b2740" stroke-width="1.4" opacity="0.9"/><circle cx="262" cy="856" r="10" fill="#e6c34d" opacity="0.18"/><circle cx="262" cy="856" r="5" fill="#e6c34d"/><text x="276" y="860" fill="#c8d4e8" font-size="12.5">Károly Róbert</text><text x="377" y="860" fill="#5a6b8c" font-size="12.5">1308</text><circle cx="492" cy="892" r="10" fill="#e6c34d" opacity="0.18"/><circle cx="492" cy="892" r="5" fill="#e6c34d"/><text x="506" y="896" fill="#c8d4e8" font-size="12.5">Nagy Lajos</text><text x="585" y="896" fill="#5a6b8c" font-size="12.5">1342</text><circle cx="722" cy="856" r="10" fill="#e6c34d" opacity="0.18"/><circle cx="722" cy="856" r="5" fill="#e6c34d"/><text x="736" y="860" fill="#c8d4e8" font-size="12.5">Luxemburgi Zsigmond</text><text x="881" y="860" fill="#5a6b8c" font-size="12.5">1387</text><circle cx="210" cy="1032" r="14" fill="#b48bff" opacity="0.18"/><circle cx="210" cy="1032" r="7" fill="#b48bff"/><text x="40" y="1026" fill="#c8d4e8" font-size="16" font-weight="700">Hunyadiak — Hunyadis</text><text x="40" y="1048" fill="#5a6b8c" font-size="13">1443–1490</text><line x1="262" y1="1004" x2="440" y2="1040" stroke="#1b2740" stroke-width="1.4" opacity="0.9"/><line x1="440" y1="1040" x2="618" y2="1004" stroke="#1b2740" stroke-width="1.4" opacity="0.9"/><line x1="262" y1="1004" x2="796" y2="1040" stroke="#1b2740" stroke-width="1.4" opacity="0.9"/><line x1="796" y1="1040" x2="974" y2="1004" stroke="#1b2740" stroke-width="1.4" opacity="0.9"/><circle cx="262" cy="1004" r="10" fill="#e6c34d" opacity="0.18"/><circle cx="262" cy="1004" r="5" fill="#e6c34d"/><text x="276" y="1008" fill="#c8d4e8" font-size="12.5">Hunyadi János</text><text x="377" y="1008" fill="#5a6b8c" font-size="12.5">1443</text><circle cx="440" cy="1040" r="10" fill="#00d4ff" opacity="0.18"/><circle cx="440" cy="1040" r="5" fill="#00d4ff"/><text x="454" y="1044" fill="#c8d4e8" font-size="12.5">Nándorfehérvár 1456</text><text x="599" y="1044" fill="#5a6b8c" font-size="12.5">1456</text><circle cx="618" cy="1004" r="10" fill="#b48bff" opacity="0.18"/><circle cx="618" cy="1004" r="5" fill="#b48bff"/><text x="632" y="1008" fill="#c8d4e8" font-size="12.5">déli harangszó (noon bells)</text><text x="836" y="1008" fill="#5a6b8c" font-size="12.5">1456</text><circle cx="796" cy="1040" r="10" fill="#e6c34d" opacity="0.18"/><circle cx="796" cy="1040" r="5" fill="#e6c34d"/><text x="810" y="1044" fill="#c8d4e8" font-size="12.5">Mátyás király (Corvinus)</text><text x="992" y="1044" fill="#5a6b8c" font-size="12.5">1458</text><circle cx="974" cy="1004" r="10" fill="#b48bff" opacity="0.18"/><circle cx="974" cy="1004" r="5" fill="#b48bff"/><text x="988" y="1008" fill="#c8d4e8" font-size="12.5">Bibliotheca Corviniana</text><text x="1155" y="1008" fill="#5a6b8c" font-size="12.5">1470</text><circle cx="210" cy="1180" r="14" fill="#b48bff" opacity="0.18"/><circle cx="210" cy="1180" r="7" fill="#b48bff"/><text x="40" y="1174" fill="#c8d4e8" font-size="16" font-weight="700">Török kor — Ottoman</text><text x="40" y="1196" fill="#5a6b8c" font-size="13">1526–1699</text><line x1="440" y1="1188" x2="262" y2="1152" stroke="#1b2740" stroke-width="1.4" opacity="0.9"/><line x1="262" y1="1152" x2="618" y2="1152" stroke="#1b2740" stroke-width="1.4" opacity="0.9"/><line x1="618" y1="1152" x2="796" y2="1188" stroke="#1b2740" stroke-width="1.4" opacity="0.9"/><line x1="618" y1="1152" x2="974" y2="1152" stroke="#1b2740" stroke-width="1.4" opacity="0.9"/><circle cx="262" cy="1152" r="10" fill="#00d4ff" opacity="0.18"/><circle cx="262" cy="1152" r="5" fill="#00d4ff"/><text x="276" y="1156" fill="#c8d4e8" font-size="12.5">Mohács 1526</text><text x="362" y="1156" fill="#5a6b8c" font-size="12.5">1526</text><circle cx="440" cy="1188" r="10" fill="#e6c34d" opacity="0.18"/><circle cx="440" cy="1188" r="5" fill="#e6c34d"/><text x="454" y="1192" fill="#c8d4e8" font-size="12.5">II. Lajos</text><text x="526" y="1192" fill="#5a6b8c" font-size="12.5">1526</text><circle cx="618" cy="1152" r="10" fill="#b48bff" opacity="0.18"/><circle cx="618" cy="1152" r="5" fill="#b48bff"/><text x="632" y="1156" fill="#c8d4e8" font-size="12.5">három részre szakadás</text><text x="792" y="1156" fill="#5a6b8c" font-size="12.5">1541</text><circle cx="796" cy="1188" r="10" fill="#00d4ff" opacity="0.18"/><circle cx="796" cy="1188" r="5" fill="#00d4ff"/><text x="810" y="1192" fill="#c8d4e8" font-size="12.5">Eger 1552 (Dobó)</text><text x="933" y="1192" fill="#5a6b8c" font-size="12.5">1552</text><circle cx="974" cy="1152" r="10" fill="#00e660" opacity="0.18"/><circle cx="974" cy="1152" r="5" fill="#00e660"/><text x="988" y="1156" fill="#c8d4e8" font-size="12.5">Buda 1541→1686</text><text x="1096" y="1156" fill="#5a6b8c" font-size="12.5">1686</text><circle cx="210" cy="1328" r="14" fill="#b48bff" opacity="0.18"/><circle cx="210" cy="1328" r="7" fill="#b48bff"/><text x="40" y="1322" fill="#c8d4e8" font-size="16" font-weight="700">Habsburg &amp; szabadságharc</text><text x="40" y="1344" fill="#5a6b8c" font-size="13">1699–1867</text><line x1="262" y1="1300" x2="410" y2="1336" stroke="#1b2740" stroke-width="1.4" opacity="0.9"/><line x1="558" y1="1300" x2="410" y2="1336" stroke="#1b2740" stroke-width="1.4" opacity="0.9"/><line x1="706" y1="1336" x2="410" y2="1336" stroke="#1b2740" stroke-width="1.4" opacity="0.9"/><line x1="854" y1="1300" x2="410" y2="1336" stroke="#1b2740" stroke-width="1.4" opacity="0.9"/><line x1="410" y1="1336" x2="1002" y2="1336" stroke="#1b2740" stroke-width="1.4" opacity="0.9"/><circle cx="262" cy="1300" r="10" fill="#e6c34d" opacity="0.18"/><circle cx="262" cy="1300" r="5" fill="#e6c34d"/><text x="276" y="1304" fill="#c8d4e8" font-size="12.5">Rákóczi Ferenc II</text><text x="406" y="1304" fill="#5a6b8c" font-size="12.5">1703</text><circle cx="410" cy="1336" r="10" fill="#00d4ff" opacity="0.18"/><circle cx="410" cy="1336" r="5" fill="#00d4ff"/><text x="424" y="1340" fill="#c8d4e8" font-size="12.5">1848 forradalom</text><text x="540" y="1340" fill="#5a6b8c" font-size="12.5">1848</text><circle cx="558" cy="1300" r="10" fill="#e6c34d" opacity="0.18"/><circle cx="558" cy="1300" r="5" fill="#e6c34d"/><text x="572" y="1304" fill="#c8d4e8" font-size="12.5">Kossuth Lajos</text><text x="673" y="1304" fill="#5a6b8c" font-size="12.5">1848</text><circle cx="706" cy="1336" r="10" fill="#e6c34d" opacity="0.18"/><circle cx="706" cy="1336" r="5" fill="#e6c34d"/><text x="720" y="1340" fill="#c8d4e8" font-size="12.5">Petőfi Sándor</text><text x="821" y="1340" fill="#5a6b8c" font-size="12.5">1848</text><circle cx="854" cy="1300" r="10" fill="#e6c34d" opacity="0.18"/><circle cx="854" cy="1300" r="5" fill="#e6c34d"/><text x="868" y="1304" fill="#c8d4e8" font-size="12.5">Széchenyi István</text><text x="991" y="1304" fill="#5a6b8c" font-size="12.5">1848</text><circle cx="1002" cy="1336" r="10" fill="#00d4ff" opacity="0.18"/><circle cx="1002" cy="1336" r="5" fill="#00d4ff"/><text x="1016" y="1340" fill="#c8d4e8" font-size="12.5">Világos 1849</text><text x="1110" y="1340" fill="#5a6b8c" font-size="12.5">1849</text><circle cx="210" cy="1476" r="14" fill="#b48bff" opacity="0.18"/><circle cx="210" cy="1476" r="7" fill="#b48bff"/><text x="40" y="1470" fill="#c8d4e8" font-size="16" font-weight="700">Kiegyezés — Dual Monarchy</text><text x="40" y="1492" fill="#5a6b8c" font-size="13">1867–1918</text><line x1="492" y1="1484" x2="262" y2="1448" stroke="#1b2740" stroke-width="1.4" opacity="0.9"/><line x1="262" y1="1448" x2="722" y2="1448" stroke="#1b2740" stroke-width="1.4" opacity="0.9"/><circle cx="262" cy="1448" r="10" fill="#b48bff" opacity="0.18"/><circle cx="262" cy="1448" r="5" fill="#b48bff"/><text x="276" y="1452" fill="#c8d4e8" font-size="12.5">Osztrák–Magyar Monarchia</text><text x="458" y="1452" fill="#5a6b8c" font-size="12.5">1867</text><circle cx="492" cy="1484" r="10" fill="#e6c34d" opacity="0.18"/><circle cx="492" cy="1484" r="5" fill="#e6c34d"/><text x="506" y="1488" fill="#c8d4e8" font-size="12.5">Ferenc József</text><text x="607" y="1488" fill="#5a6b8c" font-size="12.5">1867</text><circle cx="722" cy="1448" r="10" fill="#00d4ff" opacity="0.18"/><circle cx="722" cy="1448" r="5" fill="#00d4ff"/><text x="736" y="1452" fill="#c8d4e8" font-size="12.5">Millennium 1896</text><text x="852" y="1452" fill="#5a6b8c" font-size="12.5">1896</text><circle cx="210" cy="1624" r="14" fill="#b48bff" opacity="0.18"/><circle cx="210" cy="1624" r="7" fill="#b48bff"/><text x="40" y="1618" fill="#c8d4e8" font-size="16" font-weight="700">Trianon &amp; világháborúk</text><text x="40" y="1640" fill="#5a6b8c" font-size="13">1918–1945</text><line x1="262" y1="1596" x2="484" y2="1632" stroke="#1b2740" stroke-width="1.4" opacity="0.9"/><line x1="484" y1="1632" x2="706" y2="1596" stroke="#1b2740" stroke-width="1.4" opacity="0.9"/><line x1="706" y1="1596" x2="928" y2="1632" stroke="#1b2740" stroke-width="1.4" opacity="0.9"/><circle cx="262" cy="1596" r="10" fill="#00d4ff" opacity="0.18"/><circle cx="262" cy="1596" r="5" fill="#00d4ff"/><text x="276" y="1600" fill="#c8d4e8" font-size="12.5">I. világháború</text><text x="384" y="1600" fill="#5a6b8c" font-size="12.5">1914</text><circle cx="484" cy="1632" r="10" fill="#00d4ff" opacity="0.18"/><circle cx="484" cy="1632" r="5" fill="#00d4ff"/><text x="498" y="1636" fill="#c8d4e8" font-size="12.5">Trianon 1920</text><text x="592" y="1636" fill="#5a6b8c" font-size="12.5">1920</text><circle cx="706" cy="1596" r="10" fill="#e6c34d" opacity="0.18"/><circle cx="706" cy="1596" r="5" fill="#e6c34d"/><text x="720" y="1600" fill="#c8d4e8" font-size="12.5">Horthy Miklós</text><text x="821" y="1600" fill="#5a6b8c" font-size="12.5">1920</text><circle cx="928" cy="1632" r="10" fill="#00d4ff" opacity="0.18"/><circle cx="928" cy="1632" r="5" fill="#00d4ff"/><text x="942" y="1636" fill="#c8d4e8" font-size="12.5">II. világháború</text><text x="1058" y="1636" fill="#5a6b8c" font-size="12.5">1939</text><circle cx="210" cy="1772" r="14" fill="#b48bff" opacity="0.18"/><circle cx="210" cy="1772" r="7" fill="#b48bff"/><text x="40" y="1766" fill="#c8d4e8" font-size="16" font-weight="700">Népköztársaság → 1989</text><text x="40" y="1788" fill="#5a6b8c" font-size="13">1945–1989</text><line x1="484" y1="1780" x2="262" y2="1744" stroke="#1b2740" stroke-width="1.4" opacity="0.9"/><line x1="706" y1="1744" x2="262" y2="1744" stroke="#1b2740" stroke-width="1.4" opacity="0.9"/><line x1="262" y1="1744" x2="928" y2="1780" stroke="#1b2740" stroke-width="1.4" opacity="0.9"/><circle cx="262" cy="1744" r="10" fill="#00d4ff" opacity="0.18"/><circle cx="262" cy="1744" r="5" fill="#00d4ff"/><text x="276" y="1748" fill="#c8d4e8" font-size="12.5">1956 forradalom</text><text x="392" y="1748" fill="#5a6b8c" font-size="12.5">1956</text><circle cx="484" cy="1780" r="10" fill="#e6c34d" opacity="0.18"/><circle cx="484" cy="1780" r="5" fill="#e6c34d"/><text x="498" y="1784" fill="#c8d4e8" font-size="12.5">Nagy Imre</text><text x="570" y="1784" fill="#5a6b8c" font-size="12.5">1956</text><circle cx="706" cy="1744" r="10" fill="#e6c34d" opacity="0.18"/><circle cx="706" cy="1744" r="5" fill="#e6c34d"/><text x="720" y="1748" fill="#c8d4e8" font-size="12.5">Kádár János</text><text x="806" y="1748" fill="#5a6b8c" font-size="12.5">1956</text><circle cx="928" cy="1780" r="10" fill="#00d4ff" opacity="0.18"/><circle cx="928" cy="1780" r="5" fill="#00d4ff"/><text x="942" y="1784" fill="#c8d4e8" font-size="12.5">rendszerváltás 1989</text><text x="1087" y="1784" fill="#5a6b8c" font-size="12.5">1989</text><circle cx="210" cy="1920" r="14" fill="#b48bff" opacity="0.18"/><circle cx="210" cy="1920" r="7" fill="#b48bff"/><text x="40" y="1914" fill="#c8d4e8" font-size="16" font-weight="700">Modern — Republic</text><text x="40" y="1936" fill="#5a6b8c" font-size="13">1990–</text><line x1="262" y1="1892" x2="492" y2="1928" stroke="#1b2740" stroke-width="1.4" opacity="0.9"/><line x1="492" y1="1928" x2="722" y2="1892" stroke="#1b2740" stroke-width="1.4" opacity="0.9"/><circle cx="262" cy="1892" r="10" fill="#b48bff" opacity="0.18"/><circle cx="262" cy="1892" r="5" fill="#b48bff"/><text x="276" y="1896" fill="#c8d4e8" font-size="12.5">Harmadik Köztársaság</text><text x="429" y="1896" fill="#5a6b8c" font-size="12.5">1989</text><circle cx="492" cy="1928" r="10" fill="#00d4ff" opacity="0.18"/><circle cx="492" cy="1928" r="5" fill="#00d4ff"/><text x="506" y="1932" fill="#c8d4e8" font-size="12.5">NATO 1999</text><text x="578" y="1932" fill="#5a6b8c" font-size="12.5">1999</text><circle cx="722" cy="1892" r="10" fill="#00d4ff" opacity="0.18"/><circle cx="722" cy="1892" r="5" fill="#00d4ff"/><text x="736" y="1896" fill="#c8d4e8" font-size="12.5">EU 2004</text><text x="793" y="1896" fill="#5a6b8c" font-size="12.5">2004</text><line x1="210" y1="153" x2="210" y2="283" stroke="#00e660" stroke-width="2" opacity="0.7"/><line x1="210" y1="301" x2="210" y2="431" stroke="#00e660" stroke-width="2" opacity="0.7"/><line x1="210" y1="449" x2="210" y2="579" stroke="#00e660" stroke-width="2" opacity="0.7"/><line x1="210" y1="597" x2="210" y2="727" stroke="#00e660" stroke-width="2" opacity="0.7"/><line x1="210" y1="745" x2="210" y2="875" stroke="#00e660" stroke-width="2" opacity="0.7"/><line x1="210" y1="893" x2="210" y2="1023" stroke="#00e660" stroke-width="2" opacity="0.7"/><line x1="210" y1="1041" x2="210" y2="1171" stroke="#00e660" stroke-width="2" opacity="0.7"/><line x1="210" y1="1189" x2="210" y2="1319" stroke="#00e660" stroke-width="2" opacity="0.7"/><line x1="210" y1="1337" x2="210" y2="1467" stroke="#00e660" stroke-width="2" opacity="0.7"/><line x1="210" y1="1485" x2="210" y2="1615" stroke="#00e660" stroke-width="2" opacity="0.7"/><line x1="210" y1="1633" x2="210" y2="1763" stroke="#00e660" stroke-width="2" opacity="0.7"/><line x1="210" y1="1781" x2="210" y2="1911" stroke="#00e660" stroke-width="2" opacity="0.7"/><path d="M 218 144 L 232 144 L 232 588 L 218 588" fill="none" stroke="#b48bff" stroke-width="1.5" opacity="0.55" stroke-dasharray="5 4"/><path d="M 218 292 L 232 292 L 232 736 L 218 736" fill="none" stroke="#b48bff" stroke-width="1.5" opacity="0.55" stroke-dasharray="5 4"/><path d="M 218 1032 L 232 1032 L 232 1180 L 218 1180" fill="none" stroke="#b48bff" stroke-width="1.5" opacity="0.55" stroke-dasharray="5 4"/><circle cx="930" cy="40" r="8" fill="#e6c34d" opacity="0.18"/><circle cx="930" cy="40" r="4" fill="#e6c34d"/><text x="938" y="44" fill="#5a6b8c" font-size="11">person</text><circle cx="992" cy="40" r="8" fill="#00d4ff" opacity="0.18"/><circle cx="992" cy="40" r="4" fill="#00d4ff"/><text x="1000" y="44" fill="#5a6b8c" font-size="11">event</text><circle cx="1054" cy="40" r="8" fill="#00e660" opacity="0.18"/><circle cx="1054" cy="40" r="4" fill="#00e660"/><text x="1062" y="44" fill="#5a6b8c" font-size="11">place</text><circle cx="1116" cy="40" r="8" fill="#b48bff" opacity="0.18"/><circle cx="1116" cy="40" r="4" fill="#b48bff"/><text x="1124" y="44" fill="#5a6b8c" font-size="11">idea/law</text></svg>