<svg xmlns="http://www.w3.org/2000/svg" viewBox="0 0 1400 1400" width="1400" height="1400" font-family="ui-monospace,Menlo,monospace"><rect width="1400" height="1400" fill="#070b16"/><text x="700" y="46" text-anchor="middle" fill="#c8d4e8" font-size="26" font-weight="700">Magyar történelem — live from hu.wikipedia</text><text x="700" y="74" text-anchor="middle" fill="#5a6b8c" font-size="14">40 nodes, 60 micro-edges — built by ultragraph.wiki</text><line x1="700.0" y1="260.0" x2="899.8" y2="308.0" stroke="#1b2740" stroke-width="1" opacity="0.55"/><line x1="700.0" y1="260.0" x2="958.6" y2="344.0" stroke="#1b2740" stroke-width="1" opacity="0.55"/><line x1="700.0" y1="260.0" x2="1011.1" y2="388.9" stroke="#1b2740" stroke-width="1" opacity="0.55"/><line x1="700.0" y1="260.0" x2="1056.0" y2="441.4" stroke="#1b2740" stroke-width="1" opacity="0.55"/><line x1="700.0" y1="260.0" x2="1092.0" y2="500.2" stroke="#1b2740" stroke-width="1" opacity="0.55"/><line x1="700.0" y1="260.0" x2="1118.5" y2="564.0" stroke="#1b2740" stroke-width="1" opacity="0.55"/><line x1="700.0" y1="260.0" x2="1134.6" y2="631.2" stroke="#1b2740" stroke-width="1" opacity="0.55"/><line x1="700.0" y1="260.0" x2="1140.0" y2="700.0" stroke="#1b2740" stroke-width="1" opacity="0.55"/><line x1="700.0" y1="260.0" x2="836.0" y2="281.5" stroke="#1b2740" stroke-width="1" opacity="0.55"/><line x1="768.8" y1="265.4" x2="899.8" y2="308.0" stroke="#1b2740" stroke-width="1" opacity="0.55"/><line x1="768.8" y1="265.4" x2="958.6" y2="344.0" stroke="#1b2740" stroke-width="1" opacity="0.55"/><line x1="768.8" y1="265.4" x2="1134.6" y2="768.8" stroke="#1b2740" stroke-width="1" opacity="0.55"/><line x1="768.8" y1="265.4" x2="1118.5" y2="836.0" stroke="#1b2740" stroke-width="1" opacity="0.55"/><line x1="768.8" y1="265.4" x2="1092.0" y2="899.8" stroke="#1b2740" stroke-width="1" opacity="0.55"/><line x1="768.8" y1="265.4" x2="1056.0" y2="958.6" stroke="#1b2740" stroke-width="1" opacity="0.55"/><line x1="768.8" y1="265.4" x2="1011.1" y2="1011.1" stroke="#1b2740" stroke-width="1" opacity="0.55"/><line x1="768.8" y1="265.4" x2="958.6" y2="1056.0" stroke="#1b2740" stroke-width="1" opacity="0.55"/><line x1="768.8" y1="265.4" x2="899.8" y2="1092.0" stroke="#1b2740" stroke-width="1" opacity="0.55"/><line x1="768.8" y1="265.4" x2="836.0" y2="1118.5" stroke="#1b2740" stroke-width="1" opacity="0.55"/><line x1="768.8" y1="265.4" x2="768.8" y2="1134.6" stroke="#1b2740" stroke-width="1" opacity="0.55"/><line x1="768.8" y1="265.4" x2="700.0" y2="1140.0" stroke="#1b2740" stroke-width="1" opacity="0.55"/><line x1="836.0" y1="281.5" x2="1056.0" y2="441.4" stroke="#1b2740" stroke-width="1" opacity="0.55"/><line x1="836.0" y1="281.5" x2="631.2" y2="1134.6" stroke="#1b2740" stroke-width="1" opacity="0.55"/><line x1="836.0" y1="281.5" x2="564.0" y2="1118.5" stroke="#1b2740" stroke-width="1" opacity="0.55"/><line x1="836.0" y1="281.5" x2="500.2" y2="1092.0" stroke="#1b2740" stroke-width="1" opacity="0.55"/><line x1="836.0" y1="281.5" x2="441.4" y2="1056.0" stroke="#1b2740" stroke-width="1" opacity="0.55"/><line x1="836.0" y1="281.5" x2="388.9" y2="1011.1" stroke="#1b2740" stroke-width="1" opacity="0.55"/><line x1="836.0" y1="281.5" x2="344.0" y2="958.6" stroke="#1b2740" stroke-width="1" opacity="0.55"/><line x1="836.0" y1="281.5" x2="308.0" y2="899.8" stroke="#1b2740" stroke-width="1" opacity="0.55"/><line x1="899.8" y1="308.0" x2="958.6" y2="344.0" stroke="#1b2740" stroke-width="1" opacity="0.55"/><line x1="899.8" y1="308.0" x2="1011.1" y2="388.9" stroke="#1b2740" stroke-width="1" opacity="0.55"/><line x1="899.8" y1="308.0" x2="768.8" y2="265.4" stroke="#1b2740" stroke-width="1" opacity="0.55"/><line x1="899.8" y1="308.0" x2="281.5" y2="836.0" stroke="#1b2740" stroke-width="1" opacity="0.55"/><line x1="899.8" y1="308.0" x2="265.4" y2="768.8" stroke="#1b2740" stroke-width="1" opacity="0.55"/><line x1="899.8" y1="308.0" x2="260.0" y2="700.0" stroke="#1b2740" stroke-width="1" opacity="0.55"/><line x1="899.8" y1="308.0" x2="265.4" y2="631.2" stroke="#1b2740" stroke-width="1" opacity="0.55"/><line x1="958.6" y1="344.0" x2="899.8" y2="308.0" stroke="#1b2740" stroke-width="1" opacity="0.55"/><line x1="958.6" y1="344.0" x2="281.5" y2="564.0" stroke="#1b2740" stroke-width="1" opacity="0.55"/><line x1="958.6" y1="344.0" x2="308.0" y2="500.2" stroke="#1b2740" stroke-width="1" opacity="0.55"/><line x1="958.6" y1="344.0" x2="344.0" y2="441.4" stroke="#1b2740" stroke-width="1" opacity="0.55"/><line x1="958.6" y1="344.0" x2="388.9" y2="388.9" stroke="#1b2740" stroke-width="1" opacity="0.55"/><line x1="958.6" y1="344.0" x2="441.4" y2="344.0" stroke="#1b2740" stroke-width="1" opacity="0.55"/><line x1="958.6" y1="344.0" x2="500.2" y2="308.0" stroke="#1b2740" stroke-width="1" opacity="0.55"/><line x1="958.6" y1="344.0" x2="260.0" y2="700.0" stroke="#1b2740" stroke-width="1" opacity="0.55"/><line x1="1011.1" y1="388.9" x2="899.8" y2="308.0" stroke="#1b2740" stroke-width="1" opacity="0.55"/><line x1="1011.1" y1="388.9" x2="260.0" y2="700.0" stroke="#1b2740" stroke-width="1" opacity="0.55"/><line x1="1056.0" y1="441.4" x2="500.2" y2="1092.0" stroke="#1b2740" stroke-width="1" opacity="0.55"/><line x1="1056.0" y1="441.4" x2="564.0" y2="281.5" stroke="#1b2740" stroke-width="1" opacity="0.55"/><line x1="1056.0" y1="441.4" x2="631.2" y2="265.4" stroke="#1b2740" stroke-width="1" opacity="0.55"/><line x1="1056.0" y1="441.4" x2="836.0" y2="281.5" stroke="#1b2740" stroke-width="1" opacity="0.55"/><line x1="1092.0" y1="500.2" x2="899.8" y2="308.0" stroke="#1b2740" stroke-width="1" opacity="0.55"/><line x1="1092.0" y1="500.2" x2="700.0" y2="260.0" stroke="#1b2740" stroke-width="1" opacity="0.55"/><line x1="1092.0" y1="500.2" x2="768.8" y2="265.4" stroke="#1b2740" stroke-width="1" opacity="0.55"/><line x1="1118.5" y1="564.0" x2="1056.0" y2="441.4" stroke="#1b2740" stroke-width="1" opacity="0.55"/><line x1="1118.5" y1="564.0" x2="1134.6" y2="631.2" stroke="#1b2740" stroke-width="1" opacity="0.55"/><line x1="1118.5" y1="564.0" x2="700.0" y2="260.0" stroke="#1b2740" stroke-width="1" opacity="0.55"/><line x1="1118.5" y1="564.0" x2="836.0" y2="281.5" stroke="#1b2740" stroke-width="1" opacity="0.55"/><line x1="1134.6" y1="631.2" x2="1118.5" y2="564.0" stroke="#1b2740" stroke-width="1" opacity="0.55"/><line x1="1134.6" y1="631.2" x2="308.0" y2="899.8" stroke="#1b2740" stroke-width="1" opacity="0.55"/><line x1="1134.6" y1="631.2" x2="836.0" y2="281.5" stroke="#1b2740" stroke-width="1" opacity="0.55"/><circle cx="700.0" cy="260.0" r="16" fill="#00d4ff" opacity="0.16"/><circle cx="700.0" cy="260.0" r="6" fill="#00d4ff"/><text x="714.0" y="264.0" text-anchor="start" fill="#c8d4e8" font-size="12.5">Honfoglalás</text><circle cx="768.8" cy="265.4" r="16" fill="#00d4ff" opacity="0.16"/><circle cx="768.8" cy="265.4" r="6" fill="#00d4ff"/><text x="782.8" y="269.4" text-anchor="start" fill="#c8d4e8" font-size="12.5">I. István magyar király</text><circle cx="836.0" cy="281.5" r="16" fill="#00d4ff" opacity="0.16"/><circle cx="836.0" cy="281.5" r="6" fill="#00d4ff"/><text x="850.0" y="285.5" text-anchor="start" fill="#c8d4e8" font-size="12.5">Mohácsi csata</text><circle cx="899.8" cy="308.0" r="16" fill="#00d4ff" opacity="0.16"/><circle cx="899.8" cy="308.0" r="6" fill="#00d4ff"/><text x="913.8" y="312.0" text-anchor="start" fill="#c8d4e8" font-size="12.5">10. század</text><circle cx="958.6" cy="344.0" r="16" fill="#00d4ff" opacity="0.16"/><circle cx="958.6" cy="344.0" r="6" fill="#00d4ff"/><text x="972.6" y="348.0" text-anchor="start" fill="#c8d4e8" font-size="12.5">14. század</text><circle cx="1011.1" cy="388.9" r="16" fill="#00d4ff" opacity="0.16"/><circle cx="1011.1" cy="388.9" r="6" fill="#00d4ff"/><text x="1025.1" y="392.9" text-anchor="start" fill="#c8d4e8" font-size="12.5">970</text><circle cx="1056.0" cy="441.4" r="16" fill="#00d4ff" opacity="0.16"/><circle cx="1056.0" cy="441.4" r="6" fill="#00d4ff"/><text x="1070.0" y="445.4" text-anchor="start" fill="#c8d4e8" font-size="12.5">A Jagelló-kor Magyarországon</text><circle cx="1092.0" cy="500.2" r="16" fill="#00d4ff" opacity="0.16"/><circle cx="1092.0" cy="500.2" r="6" fill="#00d4ff"/><text x="1106.0" y="504.2" text-anchor="start" fill="#c8d4e8" font-size="12.5">A Kárpát-medence településföldrajza a 13. századig</text><circle cx="1118.5" cy="564.0" r="16" fill="#00d4ff" opacity="0.16"/><circle cx="1118.5" cy="564.0" r="6" fill="#00d4ff"/><text x="1132.5" y="568.0" text-anchor="start" fill="#c8d4e8" font-size="12.5">A Magyar Királyság a 18. században</text><circle cx="1134.6" cy="631.2" r="16" fill="#00d4ff" opacity="0.16"/><circle cx="1134.6" cy="631.2" r="6" fill="#00d4ff"/><text x="1148.6" y="635.2" text-anchor="start" fill="#c8d4e8" font-size="12.5">A Magyar Királyság a kora újkorban</text><circle cx="1140.0" cy="700.0" r="16" fill="#00d4ff" opacity="0.16"/><circle cx="1140.0" cy="700.0" r="6" fill="#00d4ff"/><text x="1154.0" y="704.0" text-anchor="start" fill="#c8d4e8" font-size="12.5">Gyepű</text><circle cx="1134.6" cy="768.8" r="16" fill="#00d4ff" opacity="0.16"/><circle cx="1134.6" cy="768.8" r="6" fill="#00d4ff"/><text x="1148.6" y="772.8" text-anchor="start" fill="#c8d4e8" font-size="12.5">Csanád (nemzetségős)</text><circle cx="1118.5" cy="836.0" r="16" fill="#00d4ff" opacity="0.16"/><circle cx="1118.5" cy="836.0" r="6" fill="#00d4ff"/><text x="1132.5" y="840.0" text-anchor="start" fill="#c8d4e8" font-size="12.5">December 25.</text><circle cx="1092.0" cy="899.8" r="16" fill="#00d4ff" opacity="0.16"/><circle cx="1092.0" cy="899.8" r="6" fill="#00d4ff"/><text x="1106.0" y="903.8" text-anchor="start" fill="#c8d4e8" font-size="12.5">Diós István</text><circle cx="1056.0" cy="958.6" r="16" fill="#00d4ff" opacity="0.16"/><circle cx="1056.0" cy="958.6" r="6" fill="#00d4ff"/><text x="1070.0" y="962.6" text-anchor="start" fill="#c8d4e8" font-size="12.5">Dukátus</text><circle cx="1011.1" cy="1011.1" r="16" fill="#00d4ff" opacity="0.16"/><circle cx="1011.1" cy="1011.1" r="6" fill="#00d4ff"/><text x="1025.1" y="1015.1" text-anchor="start" fill="#c8d4e8" font-size="12.5">Dávid magyar királyi herceg</text><circle cx="958.6" cy="1056.0" r="16" fill="#00d4ff" opacity="0.16"/><circle cx="958.6" cy="1056.0" r="6" fill="#00d4ff"/><text x="972.6" y="1060.0" text-anchor="start" fill="#c8d4e8" font-size="12.5">Egri főegyházmegye</text><circle cx="899.8" cy="1092.0" r="16" fill="#00d4ff" opacity="0.16"/><circle cx="899.8" cy="1092.0" r="6" fill="#00d4ff"/><text x="913.8" y="1096.0" text-anchor="start" fill="#c8d4e8" font-size="12.5">Encyclopædia Britannica</text><circle cx="836.0" cy="1118.5" r="16" fill="#00d4ff" opacity="0.16"/><circle cx="836.0" cy="1118.5" r="6" fill="#00d4ff"/><text x="850.0" y="1122.5" text-anchor="start" fill="#c8d4e8" font-size="12.5">Ereklye</text><circle cx="768.8" cy="1134.6" r="16" fill="#00d4ff" opacity="0.16"/><circle cx="768.8" cy="1134.6" r="6" fill="#00d4ff"/><text x="782.8" y="1138.6" text-anchor="start" fill="#c8d4e8" font-size="12.5">Erzsébet magyar királyi hercegnő (?–1154)</text><circle cx="700.0" cy="1140.0" r="16" fill="#00d4ff" opacity="0.16"/><circle cx="700.0" cy="1140.0" r="6" fill="#00d4ff"/><text x="714.0" y="1144.0" text-anchor="start" fill="#c8d4e8" font-size="12.5">Esztergom-Budapesti főegyházmegye</text><circle cx="631.2" cy="1134.6" r="16" fill="#00d4ff" opacity="0.16"/><circle cx="631.2" cy="1134.6" r="6" fill="#00d4ff"/><text x="617.2" y="1138.6" text-anchor="end" fill="#c8d4e8" font-size="12.5">Augusztus 29.</text><circle cx="564.0" cy="1118.5" r="16" fill="#00d4ff" opacity="0.16"/><circle cx="564.0" cy="1118.5" r="6" fill="#00d4ff"/><text x="550.0" y="1122.5" text-anchor="end" fill="#c8d4e8" font-size="12.5">Bakith Pál</text><circle cx="500.2" cy="1092.0" r="16" fill="#00d4ff" opacity="0.16"/><circle cx="500.2" cy="1092.0" r="6" fill="#00d4ff"/><text x="486.2" y="1096.0" text-anchor="end" fill="#c8d4e8" font-size="12.5">Bakócz Tamás</text><circle cx="441.4" cy="1056.0" r="16" fill="#00d4ff" opacity="0.16"/><circle cx="441.4" cy="1056.0" r="6" fill="#00d4ff"/><text x="427.4" y="1060.0" text-anchor="end" fill="#c8d4e8" font-size="12.5">Batthyány Ferenc (horvát bán)</text><circle cx="388.9" cy="1011.1" r="16" fill="#00d4ff" opacity="0.16"/><circle cx="388.9" cy="1011.1" r="6" fill="#00d4ff"/><text x="374.9" y="1015.1" text-anchor="end" fill="#c8d4e8" font-size="12.5">Bicoccai csata (1522)</text><circle cx="344.0" cy="958.6" r="16" fill="#00d4ff" opacity="0.16"/><circle cx="344.0" cy="958.6" r="6" fill="#00d4ff"/><text x="330.0" y="962.6" text-anchor="end" fill="#c8d4e8" font-size="12.5">Botlik Richárd</text><circle cx="308.0" cy="899.8" r="16" fill="#00d4ff" opacity="0.16"/><circle cx="308.0" cy="899.8" r="6" fill="#00d4ff"/><text x="294.0" y="903.8" text-anchor="end" fill="#c8d4e8" font-size="12.5">Buda török kézre kerülése</text><circle cx="281.5" cy="836.0" r="16" fill="#00d4ff" opacity="0.16"/><circle cx="281.5" cy="836.0" r="6" fill="#00d4ff"/><text x="267.5" y="840.0" text-anchor="end" fill="#c8d4e8" font-size="12.5">Toltékok</text><circle cx="265.4" cy="768.8" r="16" fill="#00d4ff" opacity="0.16"/><circle cx="265.4" cy="768.8" r="6" fill="#00d4ff"/><text x="251.4" y="772.8" text-anchor="end" fill="#c8d4e8" font-size="12.5">Velencei dózsék listája</text><circle cx="260.0" cy="700.0" r="16" fill="#00d4ff" opacity="0.16"/><circle cx="260.0" cy="700.0" r="6" fill="#00d4ff"/><text x="246.0" y="704.0" text-anchor="end" fill="#c8d4e8" font-size="12.5">Évszázad</text><circle cx="265.4" cy="631.2" r="16" fill="#00d4ff" opacity="0.16"/><circle cx="265.4" cy="631.2" r="6" fill="#00d4ff"/><text x="251.4" y="635.2" text-anchor="end" fill="#c8d4e8" font-size="12.5">Új-Fundland és Labrador</text><circle cx="281.5" cy="564.0" r="16" fill="#00d4ff" opacity="0.16"/><circle cx="281.5" cy="564.0" r="6" fill="#00d4ff"/><text x="267.5" y="568.0" text-anchor="end" fill="#c8d4e8" font-size="12.5">1291</text><circle cx="308.0" cy="500.2" r="16" fill="#00d4ff" opacity="0.16"/><circle cx="308.0" cy="500.2" r="6" fill="#00d4ff"/><text x="294.0" y="504.2" text-anchor="end" fill="#c8d4e8" font-size="12.5">1294</text><circle cx="344.0" cy="441.4" r="16" fill="#00d4ff" opacity="0.16"/><circle cx="344.0" cy="441.4" r="6" fill="#00d4ff"/><text x="330.0" y="445.4" text-anchor="end" fill="#c8d4e8" font-size="12.5">1297</text><circle cx="388.9" cy="388.9" r="16" fill="#00d4ff" opacity="0.16"/><circle cx="388.9" cy="388.9" r="6" fill="#00d4ff"/><text x="374.9" y="392.9" text-anchor="end" fill="#c8d4e8" font-size="12.5">1300</text><circle cx="441.4" cy="344.0" r="16" fill="#00d4ff" opacity="0.16"/><circle cx="441.4" cy="344.0" r="6" fill="#00d4ff"/><text x="427.4" y="348.0" text-anchor="end" fill="#c8d4e8" font-size="12.5">1301</text><circle cx="500.2" cy="308.0" r="16" fill="#00d4ff" opacity="0.16"/><circle cx="500.2" cy="308.0" r="6" fill="#00d4ff"/><text x="486.2" y="312.0" text-anchor="end" fill="#c8d4e8" font-size="12.5">1304</text><circle cx="564.0" cy="281.5" r="16" fill="#00d4ff" opacity="0.16"/><circle cx="564.0" cy="281.5" r="6" fill="#00d4ff"/><text x="550.0" y="285.5" text-anchor="end" fill="#c8d4e8" font-size="12.5">Jagelló Katalin svéd királyné</text><circle cx="631.2" cy="265.4" r="16" fill="#00d4ff" opacity="0.16"/><circle cx="631.2" cy="265.4" r="6" fill="#00d4ff"/><text x="617.2" y="269.4" text-anchor="end" fill="#c8d4e8" font-size="12.5">Jászok</text></svg>